<?xml version="1.0" encoding="UTF-8"?><svg id="Layer_2" xmlns="http://www.w3.org/2000/svg" viewBox="0 0 258.33 105.67"><defs><style>.cls-1{fill:#565656;}</style></defs><g id="Layer_1-2"><g><path class="cls-1" d="M22.02,52.26c2.06,.2,3.93,.38,5.8,.58,.52,.06,.85,.47,1.24,.76,14.01,10.09,33.32,3.3,38.48-12.33,3.91-11.87-.97-24.06-12.03-29.86-8.85-4.64-17.68-4-26.05,1.49-1.25,.82-2.46,1.34-3.92,1.47-1.25,.11-2.48,.45-3.78,.44C26.78,6.27,39.92-2.35,55.55,.58c15.46,2.9,26.89,16.22,27.23,32.06,.33,15.44-9.86,28.33-23.58,32.45-17.14,5.15-31.29-3.76-37.18-12.83Z"/><path class="cls-1" d="M59.52,78.08c-6.87,9.28-22.2,16.34-37.91,10.38C8.04,83.3-.99,69.92,.09,55.07c1.2-16.49,13.73-28.54,28.64-30.65,15.72-2.22,28.48,6.68,33.61,16.37-2.02-.37-3.92-.71-5.82-1.09-.25-.05-.48-.3-.69-.49-10.36-9.45-26.98-8.59-36.52,3.15-8.37,10.29-6.79,25.46,3.47,34.29,8.26,7.12,20.38,8.06,29.59,2.3,.65-.41,1.3-.6,2.07-.62,1.62-.04,3.24-.16,5.09-.26Z"/><path class="cls-1" d="M173.95,67.29c.14-12.98,9.49-26.04,21.59-30.01,4.6-1.51,9.22-1.75,13.77,.32,.94,.43,1.81,.96,2.59,1.62,1.28,1.07,1.41,2.6,.32,3.88-1.27,1.5-2.55,2.98-3.83,4.47-1,1.16-2.29,1.21-3.47,.16-4.31-3.86-10-3.17-13.25,1.6-.14,.2-.29,.4-.4,.61-2.82,5.11-3.96,10.64-3.71,16.41,.17,3.79,2.64,5.35,6.26,4.25,2.79-.84,5.21-2.37,7.3-4.37,.78-.75,1.12-.72,1.54,.27,.63,1.51,1.35,2.98,2.06,4.45,.25,.51,.29,.92-.17,1.31-5.41,4.53-11.13,8.41-18.54,8.55-6.89,.12-11.15-3.71-11.9-10.58-.11-.97-.11-1.96-.15-2.94Z"/><path class="cls-1" d="M106.43,79.7c-1.76,0-3.52-.03-5.28,.01-.83,.02-1.15-.11-.94-1.08,2.48-11.34,4.93-22.69,7.38-34.04,.46-2.12,.96-4.23,1.36-6.36,.15-.82,.51-1.03,1.31-1.02,3.44,.04,6.88,.02,10.31,.02,1.41,0,1.41,0,1.1,1.44-1.36,6.27-2.73,12.55-4.09,18.82-1.54,7.07-3.09,14.14-4.58,21.22-.18,.84-.51,1.03-1.29,1.01-1.76-.05-3.52-.02-5.28-.02Z"/><path class="cls-1" d="M119.06,25.56c-4.04,.03-7.35-3.24-7.37-7.28-.03-4.03,3.27-7.33,7.32-7.33,4.05,0,7.39,3.29,7.41,7.27,.02,3.97-3.32,7.3-7.36,7.34Z"/><path class="cls-1" d="M258.28,46.06c-.27-4.74-2.95-8.07-7.5-9.34-3.02-.85-6.07-.68-9.12-.17-2.7,.45-5.27,1.35-7.98,2.31,.09-.51,.14-.86,.22-1.21,.63-2.62,1.27-5.24,1.91-7.86,.35-1.43,.28-1.52-1.22-1.52-2.82,0-5.65,0-8.47,0-1.84,0-1.9,.05-2.28,1.81-.82,3.84-1.66,7.67-2.42,11.52-.19,.94-.58,1.48-1.51,1.81-1.58,.56-3.1,1.28-4.66,1.89-.61,.24-.92,.59-.91,1.27,.03,1.55-.01,3.11,.02,4.66,.02,1.06,.38,1.27,1.41,.89,1.11-.41,2.21-.85,3.52-1.35-.06,.45-.07,.69-.12,.92-1.33,6.15-2.67,12.3-4.01,18.45-2.47,11.38-4.93,22.76-7.42,34.14-.22,1.01-.05,1.41,1.09,1.38,2.99-.06,5.97-.02,8.96-.02,1.9,0,2.04-.12,2.4-1.99,1.49-7.83,2.98-15.65,4.43-23.49,.2-1.06,.48-1.33,1.61-1.02,8.03,2.14,15.03,.29,20.94-5.58,3.33-3.31,5.78-7.19,7.64-11.46,2.22-5.1,3.8-10.37,3.47-16.03Zm-20.18,23.52c-2.26,2.82-5.3,3.52-7.9,2.01-1.01-.59-1.75-1.44-2.42-2.39-.33-.46-.27-.91-.16-1.4,1.48-6.74,2.96-13.48,4.43-20.22,.14-.66,.42-1.03,1.12-1.25,1.73-.54,3.48-.9,5.27-1.05,4.31-.37,6.45,1.61,6.41,6.88-.73,5.74-2.45,12.07-6.74,17.42Z"/><path class="cls-1" d="M170.22,35.85c-3.15,.01-6.3,0-9.45,0-.5,0-.94,.12-1.03,.65-.13,.76-.66,.8-1.25,.87-4.25,.48-8.37,1.51-12.29,3.23-9.35,4.11-16.51,10.51-20.47,20.09-1.86,4.48-2.55,9.13-1.04,13.9,1.31,4.15,4.56,6.27,8.91,5.87,1.15-.1,2.26-.34,3.34-.74,3.28-1.22,5.98-3.32,8.58-5.6,2.58-2.26,4.88-4.81,7.46-7.19-.05,.23-.09,.47-.15,.7-.96,3.68-1.89,7.36-2.9,11.03-.23,.85-.07,1.06,.78,1.05,3.19-.03,6.38-.06,9.57,.02,1.05,.02,1.47-.27,1.69-1.33,1.33-6.36,2.74-12.71,4.12-19.06,1.62-7.43,3.23-14.85,4.86-22.28,.15-.7,.24-1.22-.73-1.21Zm-13.54,12.06c-.55,2.72-1.16,5.43-1.76,8.15-.06,.27-.15,.57-.32,.78-3.94,4.55-7.95,9.02-13.17,12.18-.59,.36-1.24,.63-1.9,.85-1.44,.49-2.3,0-2.63-1.47-.39-1.76-.09-3.52,.34-5.22,1.59-6.36,4.75-11.71,10.32-15.4,1.35-.89,2.8-1.51,4.33-1.87,.92-.21,1.87-.33,2.84-.35,.98,0,1.56,.1,1.85,.45s.29,.93,.09,1.9Z"/></g></g></svg>