<?xml version="1.0" encoding="UTF-8"?><svg xmlns="http://www.w3.org/2000/svg" xmlns:xlink="http://www.w3.org/1999/xlink" viewBox="0 0 1636.38 595.28"><defs><style>.cls-1,.cls-2{fill:#fff;}.cls-1,.cls-3{font-family:AbrilText-Italic, 'Abril Text';font-size:47.9px;font-style:italic;}.cls-4{fill:url(#linear-gradient-2);}.cls-2,.cls-5{font-family:AbrilText-Regular, 'Abril Text';font-size:64.35px;}.cls-6{letter-spacing:-.01em;}.cls-7{fill:url(#radial-gradient);}.cls-3,.cls-5{fill:#1d1d1b;}.cls-8{fill:#bccf00;}.cls-9{fill:#7bb929;}.cls-10{fill:#5f5f57;}.cls-11{fill:url(#linear-gradient-3);}.cls-12{fill:url(#linear-gradient);}.cls-13{letter-spacing:0em;}.cls-14{letter-spacing:-.01em;}.cls-15{fill:url(#linear-gradient-4);}</style><radialGradient id="radial-gradient" cx="1194.91" cy="-2.35" fx="1194.91" fy="-2.35" r="629.97" gradientUnits="userSpaceOnUse"><stop offset="0" stop-color="#353e43"/><stop offset="1" stop-color="#080f0e"/></radialGradient><linearGradient id="linear-gradient" x1="620.34" y1="257.48" x2="716.56" y2="302.14" gradientUnits="userSpaceOnUse"><stop offset="0" stop-color="#331129"/><stop offset=".03" stop-color="#062925"/><stop offset="1" stop-color="#1d1d1b"/></linearGradient><linearGradient id="linear-gradient-2" x1="646.75" y1="209.01" x2="534.95" y2="281.42" gradientUnits="userSpaceOnUse"><stop offset="0" stop-color="#7bb929"/><stop offset=".24" stop-color="#8dbf1d"/><stop offset=".73" stop-color="#afca08"/><stop offset="1" stop-color="#bccf00"/></linearGradient><linearGradient id="linear-gradient-3" x1="1281.04" y1="257.48" x2="1377.26" y2="302.14" gradientUnits="userSpaceOnUse"><stop offset="0" stop-color="#cecece"/><stop offset="1" stop-color="#616160"/></linearGradient><linearGradient id="linear-gradient-4" x1="1307.45" x2="1195.65" y2="281.42" xlink:href="#linear-gradient-2"/></defs><g id="BG"><rect class="cls-7" x="1041.11" width="595.28" height="595.28"/></g><g id="Text"><g><path class="cls-12" d="M736.97,270.98c-2.34-4-19.41-20.2-50.93-27.2-31.52-7-68.5-4.28-95.94,15.74-3.61,4.42,1.8,4.48,1.16,6.5-.63,2.02-4.83,3.32-4.03,7.23,.8,3.91,9.13-2.04,11.35-.36,2.22,1.67-2.25,7.59-5.93,13.3-3.68,5.71,2.09,8.36,6.18,4.48,9.61-10.25,29.28-16.31,31.44-17.98,2.16-1.67,3,1.46,15.62-2.95,31.61-7.67,54.04,.6,58.13,1.1,4.09,.5-2.7-6.6,.86-5.87,3.56,.72,5.92,.09,9.37,2.61,3.45,2.52-1.39-2.66,1.45-2.75,9.18,1.57,18.29,8.54,20.29,9.69,2,1.15,.92-2.52,.98-3.55Z"/><path class="cls-10" d="M653.97,230.17c-.93-3.63-2.61-2.4-5.36-3.64-2.75-1.24,1.04-2.94,.67-7.17-.37-4.23-25.15,2.98-27.22-.22-2.07-3.19,23.92-4.86,26.44-4.57,2.52,.28,1.72-4.9-3.98-7.36-5.7-2.46-6.07-2.06-6.24-6.11-2.6,.27-5.41,.53-8.41,.86-19.38,17.55-30.74,36.76-39.77,57.54-3.61,4.42,1.8,4.48,1.16,6.5-.63,2.02-4.83,3.32-4.03,7.23,.8,3.91,9.13-2.04,11.35-.36,2.22,1.67-2.25,7.59-5.93,13.3-3.68,5.71,2.09,8.36,6.18,4.48,9.92-14.61,38.29-46.26,62.3-55.35,1.98,.11,3.01,0,2.88-.55-.7-3.06-9.13-1.55-10.03-4.6Z"/><path class="cls-4" d="M653.97,230.17c-.93-3.63-2.61-2.4-5.36-3.64-2.75-1.24,1.04-2.94,.67-7.17-.37-4.23-25.15,2.98-27.22-.22-2.07-3.19,23.92-4.86,26.44-4.57,2.52,.28,1.72-4.9-3.98-7.36-5.7-2.46-6.07-2.06-6.24-6.11-18.83,1.94-49.05,3.78-83.04,30.86-33.99,27.08-31.86,45.71-27.38,37.61,4.49-8.1,10.05-13.54,7.54-9-2.51,4.54-5.78,18.77-1.82,11.85,3.96-6.92,19.37-16.63,11.44-3.37-7.94,13.26,1.96,19.21,2.42,16.49,7.16-18.05,16.52-29.63,49.5-43.94,32.98-14.3,67.77-3.79,67.06-6.85-.7-3.06-9.13-1.55-10.03-4.6Z"/><path class="cls-8" d="M521.69,267.85c.32-4.95,6.78-19.83,30.12-38.72,34.3-27.75,64.79-29.63,83.79-31.62l-2.47-2.37c-19,1.99-49.49,3.87-83.79,31.62-24.65,19.94-30.47,35.41-30.12,39.46,.02,1.63,2.29,3.11,2.47,1.64Z"/></g><text class="cls-5" transform="translate(544.69 333.25)"><tspan class="cls-14" x="0" y="0">Su</tspan><tspan x="74.26" y="0">pervis</tspan><tspan class="cls-13" x="254.29" y="0">i</tspan><tspan x="273.53" y="0">on</tspan></text><text class="cls-3" transform="translate(545.97 386.83)"><tspan x="0" y="0">D</tspan><tspan class="cls-6" x="33.67" y="0">u</tspan><tspan x="60.6" y="0">blin</tspan></text><g><g><path class="cls-11" d="M1397.67,270.98c-2.34-4-19.41-20.2-50.93-27.2-31.52-7-68.5-4.28-95.94,15.74-3.61,4.42,1.8,4.48,1.16,6.5-.63,2.02-4.83,3.32-4.03,7.23,.8,3.91,9.13-2.04,11.35-.36,2.22,1.67-2.25,7.59-5.93,13.3-3.68,5.71,2.09,8.36,6.18,4.48,9.61-10.25,29.28-16.31,31.44-17.98,2.16-1.67,3,1.46,15.62-2.95,31.61-7.67,54.04,.6,58.13,1.1,4.09,.5-2.7-6.6,.86-5.87,3.56,.72,5.92,.09,9.37,2.61,3.45,2.52-1.39-2.66,1.45-2.75,9.18,1.57,18.29,8.54,20.29,9.69,2,1.15,.92-2.52,.98-3.55Z"/><path class="cls-10" d="M1314.67,230.17c-.93-3.63-2.61-2.4-5.36-3.64-2.75-1.24,1.04-2.94,.67-7.17-.37-4.23-25.15,2.98-27.22-.22-2.07-3.19,23.92-4.86,26.44-4.57,2.52,.28,1.72-4.9-3.98-7.36-5.7-2.46-6.07-2.06-6.24-6.11-2.6,.27-5.41,.53-8.41,.86-19.38,17.55-30.74,36.76-39.77,57.54-3.61,4.42,1.8,4.48,1.16,6.5-.63,2.02-4.83,3.32-4.03,7.23,.8,3.91,9.13-2.04,11.35-.36,2.22,1.67-2.25,7.59-5.93,13.3-3.68,5.71,2.09,8.36,6.18,4.48,9.92-14.61,38.29-46.26,62.3-55.35,1.98,.11,3.01,0,2.88-.55-.7-3.06-9.13-1.55-10.03-4.6Z"/><path class="cls-15" d="M1314.67,230.17c-.93-3.63-2.61-2.4-5.36-3.64-2.75-1.24,1.04-2.94,.67-7.17-.37-4.23-25.15,2.98-27.22-.22-2.07-3.19,23.92-4.86,26.44-4.57,2.52,.28,1.72-4.9-3.98-7.36-5.7-2.46-6.07-2.06-6.24-6.11-18.83,1.94-49.05,3.78-83.04,30.86-33.99,27.08-31.86,45.71-27.38,37.61,4.49-8.1,10.05-13.54,7.54-9-2.51,4.54-5.78,18.77-1.82,11.85,3.96-6.92,19.37-16.63,11.44-3.37-7.94,13.26,1.96,19.21,2.42,16.49,7.16-18.05,16.52-29.63,49.5-43.94,32.98-14.3,67.77-3.79,67.06-6.85-.7-3.06-9.13-1.55-10.03-4.6Z"/><path class="cls-8" d="M1182.38,267.85c.32-4.95,6.78-19.83,30.12-38.72,34.3-27.75,64.79-29.63,83.79-31.62l-2.47-2.37c-19,1.99-49.49,3.87-83.79,31.62-24.65,19.94-30.47,35.41-30.12,39.46,.02,1.63,2.29,3.11,2.47,1.64Z"/></g><text class="cls-2" transform="translate(1205.39 333.25)"><tspan class="cls-14" x="0" y="0">Su</tspan><tspan x="74.26" y="0">pervis</tspan><tspan class="cls-13" x="254.29" y="0">i</tspan><tspan x="273.53" y="0">on</tspan></text><text class="cls-1" transform="translate(1206.67 386.83)"><tspan x="0" y="0">D</tspan><tspan class="cls-6" x="33.67" y="0">u</tspan><tspan x="60.6" y="0">blin</tspan></text></g><rect class="cls-8" y="167.52" width="231.65" height="175.3"/><rect class="cls-9" y="358.86" width="231.65" height="175.3"/></g></svg>